# xmcd
#
# Track frame offsets:
#	150
#	14126
#	27327
#	39330
#	51710
#	65513
#	81528
#	94074
#	106812
#	119570
#	131749
#	145066
#
# Disc length: 2132 seconds
#
# Revision: 1
# Processed by: cddbd v1.5.2PL0 Copyright (c) Steve Scherf et al.
# Submitted via: audiograbber 1.83.01
#
DISCID=b208520c
DTITLE=Die Filzmoser - ... san do
DYEAR=2007
DGENRE=Volksmusik
TTITLE0=Die Filzmoser san do!
TTITLE1=Volksmusik vom Alpenland
TTITLE2=Boarisch tanzen is a Freid
TTITLE3=Landlerisch - Pongauerisch
TTITLE4=Sportwelt Amade
TTITLE5=Hoamatjodler
TTITLE6=Musistadlzeit
TTITLE7=Sitz di her
TTITLE8=Mama, wann kimmt da Papa hoam?
TTITLE9=Unterhofalm-Polka
TTITLE10=Statt an Hund a Krokodil
TTITLE11=Tanz ein letztes mal
EXTD=
EXTT0=
EXTT1=
EXTT2=
EXTT3=
EXTT4=
EXTT5=
EXTT6=
EXTT7=
EXTT8=
EXTT9=
EXTT10=
EXTT11=
PLAYORDER=
